<svg height="64" width="64" xmlns="http://www.w3.org/2000/svg" xmlns:xlink="http://www.w3.org/1999/xlink"><linearGradient id="a"><stop offset="0" stop-color="#fff"/><stop offset="1" stop-color="#fff" stop-opacity="0"/></linearGradient><linearGradient id="b" gradientUnits="userSpaceOnUse" x1="29.70358977055" x2="29.70358977055" y1="2.4641056579" y2="61.84517724814"><stop offset="0" stop-color="#fff"/><stop offset=".42447853" stop-color="#fff" stop-opacity=".235294"/><stop offset=".82089913" stop-color="#fff" stop-opacity=".156863"/><stop offset="1" stop-color="#fff" stop-opacity=".392157"/></linearGradient><radialGradient id="c" cx="99.189415" cy="185.29727" gradientTransform="matrix(.3823536 .00000008 -.00000002 .1115198 -5.925426 36.334017)" gradientUnits="userSpaceOnUse" r="62.769119" xlink:href="#d"/><linearGradient id="d"><stop offset="0"/><stop offset="1" stop-opacity="0"/></linearGradient><radialGradient id="e" cx="99.189415" cy="185.29727" gradientTransform="matrix(.2549024 .00000005 -.00000001 .07965545 6.716383 44.238834)" gradientUnits="userSpaceOnUse" r="62.769119" xlink:href="#d"/><radialGradient id="f" cx="1.744776" cy="8.449767" gradientTransform="matrix(0 8.4853025 -8.9764378 -.00000023 107.84892 -32.827113)" gradientUnits="userSpaceOnUse" r="19.99999"><stop offset="0" stop-color="#f0c1ff"/><stop offset=".26238" stop-color="#c5a3f2"/><stop offset=".704952" stop-color="#7a36b1"/><stop offset="1" stop-color="#4c2d81"/></radialGradient><linearGradient id="g" gradientTransform="matrix(0 1.3293011 1.3294662 0 1.50687 -2.333507)" gradientUnits="userSpaceOnUse" x1="3.5" x2="47.5" y1="23" y2="23"><stop offset="0" stop-color="#fff" stop-opacity="0"/><stop offset=".29193082" stop-color="#fff" stop-opacity=".85098"/><stop offset=".45720881" stop-color="#fff" stop-opacity=".126829"/><stop offset=".72528207" stop-color="#fff" stop-opacity=".273171"/><stop offset=".83954281" stop-color="#fff"/><stop offset="1" stop-color="#fff" stop-opacity="0"/></linearGradient><linearGradient id="h" gradientTransform="matrix(.94007458 .93995783 -.94007458 .93995783 29.734412 -14.024284)" gradientUnits="userSpaceOnUse" x1="47.09993" x2="4.286797" y1="27.262068" y2="27.242641"><stop offset="0" stop-color="#fff" stop-opacity="0"/><stop offset=".14318481" stop-color="#fff" stop-opacity=".85098"/><stop offset=".34591126" stop-color="#fff" stop-opacity=".126829"/><stop offset=".43638432" stop-color="#fff"/><stop offset=".58131737" stop-color="#fff" stop-opacity=".204878"/><stop offset=".72528207" stop-color="#fff" stop-opacity=".273171"/><stop offset=".83954281" stop-color="#fff"/><stop offset="1" stop-color="#fff" stop-opacity="0"/></linearGradient><linearGradient id="i" gradientTransform="matrix(1.3294662 0 0 -1.3293011 -1.81679 62.137603)" gradientUnits="userSpaceOnUse" x1="4.489736" x2="47.500416" y1="23" y2="23"><stop offset="0" stop-color="#fff" stop-opacity="0"/><stop offset=".16829832" stop-color="#fff" stop-opacity=".85098"/><stop offset=".45720881" stop-color="#fff" stop-opacity=".126829"/><stop offset=".60839313" stop-color="#fff" stop-opacity=".273171"/><stop offset=".69343168" stop-color="#fff"/><stop offset="1" stop-color="#fff" stop-opacity="0"/></linearGradient><linearGradient id="j" gradientTransform="matrix(0 1.3293011 1.3294662 0 -15.833512 -2.333507)" gradientUnits="userSpaceOnUse" x1="5.550938" x2="44.628685" xlink:href="#k" y1="58.276134" y2="22.179625"/><linearGradient id="k"><stop offset="0" stop-color="#fff" stop-opacity="0"/><stop offset=".14318481" stop-color="#fff" stop-opacity=".85098"/><stop offset=".34591126" stop-color="#fff" stop-opacity=".126829"/><stop offset=".64451498" stop-color="#fff" stop-opacity=".273171"/><stop offset=".72840828" stop-color="#fff"/><stop offset=".80897337" stop-color="#fff" stop-opacity=".229268"/><stop offset="1" stop-color="#fff" stop-opacity="0"/></linearGradient><linearGradient id="l" gradientTransform="matrix(0 -1.3293011 -1.3294662 0 55.626539 67.111067)" gradientUnits="userSpaceOnUse" x1="5.550938" x2="44.628685" xlink:href="#k" y1="58.276134" y2="22.179625"/><linearGradient id="m" gradientTransform="matrix(0 1.3293011 1.3294662 0 -1.150835 4.826736)" gradientUnits="userSpaceOnUse" x1="25.177414" x2="40.761398" y1="48.221191" y2="17.055471"><stop offset="0" stop-color="#fff" stop-opacity="0"/><stop offset=".44845921" stop-color="#fff" stop-opacity=".273171"/><stop offset=".54972553" stop-color="#fff"/><stop offset=".72087312" stop-color="#fff" stop-opacity=".229268"/><stop offset="1" stop-color="#fff" stop-opacity="0"/></linearGradient><radialGradient id="n" cx="46.262896" cy="21.303997" gradientTransform="matrix(1 0 0 .99987575 0 .002647)" gradientUnits="userSpaceOnUse" r="3.635538" xlink:href="#a"/><radialGradient id="o" cx="25.17678" cy="43.294789" gradientTransform="matrix(1 0 0 .99987575 0 .005379)" gradientUnits="userSpaceOnUse" r="3.635537" xlink:href="#a"/><radialGradient id="p" cx="41.149602" cy="51.827379" gradientTransform="matrix(1 0 0 .99987575 0 .006439)" gradientUnits="userSpaceOnUse" r="3.635537" xlink:href="#a"/><radialGradient id="q" cx="13.973961" cy="22.655816" gradientTransform="matrix(1 0 0 .99987575 0 .002815)" gradientUnits="userSpaceOnUse" r="3.635537" xlink:href="#a"/><linearGradient id="r" gradientTransform="matrix(.08449704 0 0 .01235294 -6.539646 38.470822)" gradientUnits="userSpaceOnUse" x1="302.85715" x2="302.85715" y1="366.64789" y2="609.50507"><stop offset="0" stop-opacity="0"/><stop offset=".5"/><stop offset="1" stop-opacity="0"/></linearGradient><radialGradient id="s" cx="605.71429" cy="486.64789" gradientTransform="matrix(-.0289166 0 0 .01235294 21.026894 38.470848)" gradientUnits="userSpaceOnUse" r="117.14286" xlink:href="#d"/><radialGradient id="t" cx="605.71429" cy="486.64789" gradientTransform="matrix(.02891661 0 0 .01235294 26.973101 38.470848)" gradientUnits="userSpaceOnUse" r="117.14286" xlink:href="#d"/><linearGradient id="u" gradientTransform="matrix(.64447106 0 0 .6279377 32.532692 34.525971)" gradientUnits="userSpaceOnUse" x1="24" x2="24" y1="1.312484" y2="44.448593"><stop offset="0" stop-color="#ffe16b"/><stop offset="1" stop-color="#f9c440"/></linearGradient><linearGradient id="v" gradientTransform="matrix(.6665434 0 -.00290144 .6778742 28.643187 22.78161)" gradientUnits="userSpaceOnUse" x1="29.126724" x2="29.291178" y1="19.787613" y2="57.567127"><stop offset="0" stop-color="#fff"/><stop offset=".56911701" stop-color="#fff" stop-opacity=".235294"/><stop offset=".93297637" stop-color="#fff" stop-opacity=".156863"/><stop offset="1" stop-color="#fff" stop-opacity=".392157"/></linearGradient><path d="m56 56.999868a24 6.9985714 0 1 1 -47.9999995 0 24 6.9985714 0 1 1 47.9999995 0z" fill="url(#c)" opacity=".2"/><path d="m48 58.999868a16 4.9988822 0 1 1 -31.999999 0 16 4.9988822 0 1 1 31.999999 0z" fill="url(#e)" opacity=".4"/><path d="m31.999946 2.4999964c-16.277083 0-29.500004 13.2229156-29.500004 29.4999976 0 16.277087 13.222921 29.500008 29.500004 29.500004 16.277077 0 29.50001-13.222917 29.499996-29.500004 0-16.277082-13.222919-29.4999976-29.499996-29.4999976z" fill="url(#f)"/><g fill="none"><path d="m32 2.499999c-16.277082 0-29.5 13.222915-29.5 29.499998s13.222918 29.500005 29.5 29.5c16.27708 0 29.50001-13.222917 29.5-29.5 0-16.277083-13.22292-29.499998-29.5-29.499998z" opacity=".5" stroke="#6326b9"/><path d="m60.499998 32c0 15.740111-12.7599 28.499991-28.500011 28.499991-15.740095 0-28.4999845-12.75988-28.4999845-28.499991s12.7598895-28.499995 28.4999845-28.499995c15.740111 0 28.500011 12.759884 28.500011 28.499995z" opacity=".5" stroke="url(#b)" stroke-linecap="round" stroke-linejoin="round"/><path d="m34.478202 61.051489c20.653702-20.339853 12.699589-59.5448185-2.423938-58.0677094" stroke="url(#g)" stroke-linecap="round" stroke-linejoin="round"/><path d="m52.296203 51.772766c-10.821741 10.457689-49.9751167-19.71312-36.002209-44.2711137" stroke="url(#h)" stroke-linecap="round" stroke-linejoin="round"/><path d="m60.02903 25.974802c-15.473372-11.112249-57.8775486-6.853034-56.4966893 6.17938" stroke="url(#i)" stroke-linecap="round" stroke-linejoin="round"/></g><path d="m49.898434 21.303997a3.6355373 3.6350856 0 0 1 -7.271075 0 3.6355373 3.6350856 0 1 1 7.271075 0z" fill="url(#n)"/><path d="m44.785139 51.828856a3.6355373 3.6350856 0 0 1 -7.271074 0 3.6355373 3.6350856 0 1 1 7.271074 0z" fill="url(#p)"/><path d="m17.609498 22.657293a3.6355373 3.6350856 0 0 1 -7.271074 0 3.6355373 3.6350856 0 1 1 7.271074 0z" fill="url(#q)"/><path d="m9.1396387 49.055706c20.5182483-3.598624 36.3305813-23.55747 37.2034183-28.44176" fill="none" stroke="url(#j)" stroke-linecap="round" stroke-linejoin="round"/><path d="m28.812317 43.296266a3.6355373 3.6350856 0 0 1 -7.271074 0 3.6355373 3.6350856 0 1 1 7.271074 0z" fill="url(#o)"/><path d="m35.023601 3.3839633c-22.63764 4.658188-31.1643917 41.1522877-27.1776384 45.5348787" fill="none" stroke="url(#l)" stroke-linecap="round" stroke-linejoin="round"/><path d="m19.729661 57.536763c6.041175 1.156677 34.916184-4.296259 40.768363-24.982162" fill="none" stroke="url(#m)" stroke-linecap="round" stroke-linejoin="round"/><g opacity=".4" transform="matrix(.6666592 0 0 1.3333333 32 2.666668)"><path d="m3.6 43h40.799999v3h-40.799999z" fill="url(#r)"/><path d="m3.6 43.00013v2.999835c-1.4891338.005647-3.6-.672111-3.6-1.500111 0-.827998 1.6617608-1.499723 3.6-1.499724z" fill="url(#s)"/><path d="m44.4 43.00013v2.999835c1.489133.0056 3.6-.672111 3.6-1.500111 0-.827998-1.661761-1.499723-3.6-1.499724z" fill="url(#t)"/></g><path d="m62.293619 59.642856-12.586655-23.142857c-.361777-.642855-1.016401-.999998-1.745461-.999998-.729055 0-1.38704.428567-1.754313 1.071428l-12.492925 23.142857c-.294065.571431-.297427 1.357145.06466 1.928571.362082.571431.944107.857144 1.673167.857144h25.07957c.72906 0 1.386736-.357143 1.680806-.928573.366968-.571426.370025-1.285711.08115-1.928572z" fill="url(#u)"/><path d="m60.898533 58.883662-11.535987-21.178593c-.491305-.912352-.667525-1.20507-1.414174-1.20507-.642174 0-.978182.426306-1.44225 1.287491l-11.407941 21.161538c-.662438 1.188097-.73341 1.497791-.414559 2.020717.318847.522931.728238.494449 2.240887.528561h22.421623c1.408249.01704 1.725466-.08806 1.984576-.610982.323323-.522931.185798-.93781-.432175-2.003662z" fill="none" opacity=".6" stroke="url(#v)"/><path d="m62.293619 59.642855-12.586655-23.142857c-.361777-.642856-1.0164-.999998-1.74546-.999998-.729056 0-1.387041.428567-1.754314 1.071427l-12.492925 23.142859c-.294065.571429-.297427 1.357144.06466 1.92857.362082.571431.944107.857144 1.673167.857144h25.07957c.72906 0 1.386736-.357142 1.680806-.928572.366968-.571427.370025-1.285713.08115-1.928573z" fill="none" opacity=".5" stroke="#ad5f00"/><path d="m48 43c-1.104569 0-2 .895431-2 2 0 2 .666667 4.666667 1.333333 10h1.333334c.666666-5.333333 1.333333-8 1.333333-10 0-1.104569-.895431-2-2-2zm0 14c-1.104569 0-2 .895431-2 2s.895431 2 2 2 2-.895431 2-2-.895431-2-2-2z" fill="#fff" opacity=".3"/><path d="m48 42c-1.104569 0-2 .895431-2 2 0 2 .666667 4.666667 1.333333 10h1.333334c.666666-5.333333 1.333333-8 1.333333-10 0-1.104569-.895431-2-2-2zm0 14c-1.104569 0-2 .895431-2 2s.895431 2 2 2 2-.895431 2-2-.895431-2-2-2z" fill="#7a0000"/></svg>